/* XPM */
static char *result[] = {
/* columns rows colors chars-per-pixel */
"14 16 9 1 ",
"  c #140C1C",
". c #442434",
"X c #30346D",
"o c #4E4A4E",
"O c #D04648",
"+ c #597DCE",
"@ c #8595A1",
"# c #DEEED6",
"$ c None",
/* pixels */
"$$$$$$$$$$$$$$",
"$$$$$$.X$$$$$$",
"$$$$$O.X.$$$$$",
"$$$$.O.X.X$$$$",
"$$$O.O.X.X.$$$",
"$$$O.OO..X.$$$",
"$$.O.O...X.X$$",
"$..O.O##.X.XX$",
"$..OOO@@...XX ",
"$..O.O@@...XX ",
"$..O.#@@#..XX ",
"$..O#@@@@#.XX ",
"$.+#@@@@@@#+X ",
"$++@ @  @ @++ ",
"$+o@ +  @ +o+ ",
"$$$+++  +++ $$"
};
