/* XPM */
static char *result[] = {
/* columns rows colors chars-per-pixel */
"32 32 3 1 ",
"  c black",
". c #FFBB00",
"X c None",
/* pixels */
"XXXXXXXXXXXXXXXXXXXXXXXXXXXXXXXX",
"XXXXXXXXXXXXXXXXXXXXXXXXXXXXXXXX",
"XXXXXXXXXXXXXXXXXXXXXXXXXXXXXXXX",
"XXXXXXXXXXXXXXXXXXXXXXXXXXXXXXXX",
"XXXXXXXXXXXXXXXXXXXXXXXXXXXXXXXX",
"XXXXXXX                  XXXXXXX",
"XXXXXX                    XXXXXX",
"XXXXX   ................   XXXXX",
"XXXX   ..................   XXXX",
"XXX   ....................   XXX",
"XX   ......................   XX",
"XX  .........      .........  XX",
"XX  ........  ..............  XX",
"XX  .......  ...............  XX",
"XX  ......    ..............  XX",
"XX  ....... ................  XX",
"XX  ......    ..............  XX",
"XX  ....... ................  XX",
"XX  .......  ...............  XX",
"XX  ........  ..............  XX",
"XX  .........      .........  XX",
"XX  ........................  XX",
"XX  ........................  XX",
"XX   ......................   XX",
"XXX   ....................   XXX",
"XXXX   ..................   XXXX",
"XXXXX   ................   XXXXX",
"XXXXXX                    XXXXXX",
"XXXXXXX                  XXXXXXX",
"XXXXXXXXXXXXXXXXXXXXXXXXXXXXXXXX",
"XXXXXXXXXXXXXXXXXXXXXXXXXXXXXXXX",
"XXXXXXXXXXXXXXXXXXXXXXXXXXXXXXXX"
};
