/* XPM */
static char *result[] = {
/* columns rows colors chars-per-pixel */
"32 32 7 1 ",
"  c black",
". c #B71C1C",
"X c #FF5722",
"o c #FF9800",
"O c #FFEB3B",
"+ c white",
"@ c None",
/* pixels */
"@@@@@@@@@@@@@@@@@@@@@@@@@@@@@@@@",
"@@@@@@@@@@@@@@@@@@@@@@@@@@@@@@@@",
"@@@@@@@@@@@@@@@@@@@@@@@@@@@@@@@@",
"@@@@@@@@@@@@@@@@@@@@@@@@@@@@@@@@",
"@@@@@@@@@@@@@@@@@@@@@@@@@@@@@@@@",
"@@@@@@@@@@@@@@@@@@@@@@@@@@@@@@@@",
"@@@@@@@@ @@@@@@@@@@@@@ @@@@@@@@@",
"@@@@@@@ X @@@@@@@@@@@ X @@@@@@@@",
"@@@@@@ XXX @@@@@@@@@ XXX @@@@@@@",
"@@@@@@ X.XX @@@@@@@ XX.X @@@@@@@",
"@@@@@@ X..XX @@@@@ XX..X @@@@@@@",
"@@@@@@ X..XX       OO..X @@@@@@@",
"@@@@@@ XXooXXXXXXXXXXOOO @@@@@@@",
"@@@@@@ ooXXXooXXXXXXXXXX @@@@@@@",
"@@@@@@ XXX@ XXoooXX+ XXX @@@@@@@",
"@@@@@@ XXX  XXXXXXX  XXX @@@@@@@",
"@@@@@@ XXX  XXXXXXX  XXX @@@@@@@",
"@@@@@@ XXX  XXOOOXX  XXX @@@@@@@",
"@@@@@@ +XXXXOOXXXXXXXXX@ @@@@@@@",
"@@@@@@ +XXOOXXXXXXXXXXX@ @@@@@@@",
"@@@@@@@ ++XXXXXXXXXXX++ @@@@@@@@",
"@@@@@@@ +++++     +++++ @@@@@@@@",
"@@@@@@@@  ++++   ++++  @@@@@@@@@",
"@@@@@@@@@@  +++++++  @@@@@@@@@@@",
"@@@@@@@@@@@@       @@@@@@@@@@@@@",
"@@@@@@@@@@@@@@@@@@@@@@@@@@@@@@@@",
"@@@@@@@@@@@@@@@@@@@@@@@@@@@@@@@@",
"@@@@@@@@@@@@@@@@@@@@@@@@@@@@@@@@",
"@@@@@@@@@@@@@@@@@@@@@@@@@@@@@@@@",
"@@@@@@@@@@@@@@@@@@@@@@@@@@@@@@@@",
"@@@@@@@@@@@@@@@@@@@@@@@@@@@@@@@@",
"@@@@@@@@@@@@@@@@@@@@@@@@@@@@@@@@"
};
