/* XPM */
static char *result[] = {
/* columns rows colors chars-per-pixel */
"64 64 3 1 ",
"  c black",
". c white",
"X c None",
/* pixels */
"XXXXXXXXXXXXXXXXXXXXXXXXXXXXXXXXXXXXXXXXXXXXXXXXXXXXXXXXXXXXXXXX",
"XXXXXXXXXXXXXXXXXXXXXXXXXXXXXXXXXXXXXXXXXXXXXXXXXXXXXXXXXXXXXXXX",
"XXXXXXXXXXXXXXXXXXXXXXXXXXXXXXXXXXXXXXXXXXXXXXXXXXXXXXXXXXXXXXXX",
"XXXXXXXXXXXXXXXXXXXXXXXXXXXXXXXXXXXXXXXXXXXXXXXXXXXXXXXXXXXXXXXX",
"XXXXXXXXXXXXXXXXXXXXXXXXXXXXXXXXXXXXXXXXXXXXXXXXXXXXXXXXXXXXXXXX",
"XXXXXXXXXXXXXXXXXXXXXXXXXXXXXXXXXXXXXXXXXXXXXXXXXXXXXXXXXXXXXXXX",
"XXXXXXXXXXXXXXXXXXXXXXXXXXXXXXXXXXXXXXXXXXXXXXXXXXXXXXXXXXXXXXXX",
"XXXXXXXXXXXXXXXXXXXXXXXXXXXXXXXXXXXXXXXXXXXXXXXXXXXXXXXXXXXXXXXX",
"XXXXXXXXXXXXXXXXXXXXXXXXXXXX         XXXXXXXXXXXXXXXXXXXXXXXXXXX",
"XXXXXXXXXXXXXXXXXXXXXXXXX   .........   XXXXXXXXXXXXXXXXXXXXXXXX",
"XXXXXXXXXXXXXXXXXXXXXXXXX   .........   XXXXXXXXXXXXXXXXXXXXXXXX",
"XXXXXXXXXXXXXXXXXXXXXXXX ............... XXXXXXXXXXXXXXXXXXXXXXX",
"XXXXXXXXXXXXXXXXXXXXXXX .................  XXXXXXXXXXXXXXXXXXXXX",
"XXXXXXXXXXXXXXXXXXXXXXX .................  XXXXXXXXXXXXXXXXXXXXX",
"XXXXXXXXXXXXXXXXXXXXXXX .................  XXXXXXXXXXXXXXXXXXXXX",
"XXXXXXXXXXXXXXXXXXXXXXX ................... XXXXXXXXXXXXXXXXXXXX",
"XXXXXXXXXXXXXXXXXXXXXXX ....   ....   ..... XXXXXXXXXXXXXXXXXXXX",
"XXXXXXXXXXXXXXXXXXXXXXX .... . .... . ..... XXXXXXXXXXXXXXXXXXXX",
"XXXXXXXXXXXXXXXXXXXXXXX ....   ....   ..... XXXXXXXXXXXXXXXXXXXX",
"XXXXXXXXXXXXXXXXXXXXXXX ................... XXXXXXXXXXXXXXXXXXXX",
"XXXXXXXXXXXXXXXXXXXXXXX ................... XXXXXXXXXXXXXXXXXXXX",
"XXXXXXXXXXXXXXXXXXXXXXX .....         ..... XXXXXXXXXXXXXXXXXXXX",
"XXXXXXXXXXXXXXXXXXXXXXX ..... . . . . ..... XXXXXXXXXXXXXXXXXXXX",
"XXXXXXXXXXXXXXXXXXXXXXX .....         ..... XXXXXXXXXXXXXXXXXXXX",
"XXXXXXXXXXXXXXXXXXXXXXXX .................. XXXXXXXXXXXXXXXXXXXX",
"XXXXXXXXXXXXXXXXXXXXXXXX .................. XXXXXXXXXXXXXXXXXXXX",
"XXXXXXXXXXXXXXXXXXXXXXXXX  ..............  XXXXXXXXXXXXXXXXXXXXX",
"XXXXXXXXXXXXXXXXXXXXXXXX ..  ..........  XXXXXXXXXXXXXXXXXXXXXXX",
"XXXXXXXXXXXXXXXXXXXXXXXX ..  ..........  XXXXXXXXXXXXXXXXXXXXXXX",
"XXXXXXXXXXXXXXXXXXXXXXX .....             XXXXXXXXXXXXXXXXXXXXXX",
"XXXXXXXXXXXXXXXXXXXXXX ..................    XXXXXXXXXXXXXXXXXXX",
"XXXXXXXXXXXXXXXXXXXXXX ..................... XXXXXXXXXXXXXXXXXXX",
"XXXXXXXXXXXXXXXXXXXXXX ...... ...  .......... XXXXXXXXXXXXXXXXXX",
"XXXXXXXXXXXXXXXXXXXXX X...... ..... .   .....    XXXXXXXXXXXXXXX",
"XXXXXXXXXXXXXXXXXXXX ....  . ...... .  X  ......  XXXXXXXXXXXXXX",
"XXXXXXXXXXXXXXXXXXX  ...   . .. .. ..  XX  ......  XXXXXXXXXXXXX",
"XXXXXXXXXXXXXXXXXXX ...    .    . ...  XXX  ...... XXXXXXXXXXXXX",
"XXXXXXXXXXXXXXXXXXX ... X  .... .   .  XXXX        XXXXXXXXXXXXX",
"XXXXXXXXXXXXXXXXXX  ... X  ..........  XXXXXXXXXXXXXXXXXXXXXXXXX",
"XXXXXXXXXXXXXXXXXX  ..  X  ..........  XXXXXXXXXXXXXXXXXXXXXXXXX",
"XXXXXXXXXXXXXXXXXX ... XX  ..........  XXXXXXXXXXXXXXXXXXXXXXXXX",
"XXXXXXXXXXXXXXXXXX ..  XX  ..........  XXXXXXXXXXXXXXXXXXXXXXXXX",
"XXXXXXXXXXXXXXXXXX  . XXX  ..........  XXXXXXXXXXXXXXXXXXXXXXXXX",
"XXXXXXXXXXXXXXXXXXX   XXX              XXXXXXX   XXXXXXXXXXXXXXX",
"XXXXXXXXXXXXXXXXXXXXXXXXX                     .. XXXXXXXXXXXXXXX",
"XXXXXXXXXXXXXXXXXXXXXXXXX  ................  ... XXXXXXXXXXXXXXX",
"XXXXXXXXXXXXXXXXXXXXXXXX ...... ...........  ... XXXXXXXXXXXXXXX",
"XXXXXXXXXXXXXXXXXXXXXXXX ...... ...........  ... XXXXXXXXXXXXXXX",
"XXXXXXXXXXXXXXXXXXXXXXXX ...... ...........  ... XXXXXXXXXXXXXXX",
"XXXXXXXXXXXXXXXXXXXXXXXX ...... ...........  ... XXXXXXXXXXXXXXX",
"XXXXXXXXXXXXXXXXXXXXXXXX ......                  XXXXXXXXXXXXXXX",
"XXXXXXXXXXXXXXXXXXXXXXXX ...... XXXXXXXXXXXXXXXXXXXXXXXXXXXXXXXX",
"XXXXXXXXXXXXXXXXXXXXXXXX        XXXXXXXXXXXXXXXXXXXXXXXXXXXXXXXX",
"XXXXXXXXXXXXXXXXXXXXXXXX        XXXXXXXXXXXXXXXXXXXXXXXXXXXXXXXX",
"XXXXXXXXXXXXXXXXXXXXXXXX ...... XXX.XXXXXXXXXXXXXXXXXXXXXXXXXXXX",
"XXXXXXXXXXXXXXXXXXXXXXXX ....... XXXXXXXXXXXXXXXXXXXXXXXXXXXXXXX",
"XXXXXXXXXXXXXXXXXXXXXXXX ....... XXXXXXXXXXXXXXXXXXXXXXXXXXXXXXX",
"XXXXXXXXXXXXXXXXXXXXXXXX         XXXXXXXXXXXXXXXXXXXXXXXXXXXXXXX",
"XXXXXXXXXXXXXXXXXXXXXXXXXXXXXXXXXXXXXXXXXXXXXXXXXXXXXXXXXXXXXXXX",
"XXXXXXXXXXXXXXXXXXXXXXXXXXXXXXXXXXXXXXXXXXXXXXXXXXXXXXXXXXXXXXXX",
"XXXXXXXXXXXXXXXXXXXXXXXXXXXXXXXXXXXXXXXXXXXXXXXXXXXXXXXXXXXXXXXX",
"XXXXXXXXXXXXXXXXXXXXXXXXXXXXXXXXXXXXXXXXXXXXXXXXXXXXXXXXXXXXXXXX",
"XXXXXXXXXXXXXXXXXXXXXXXXXXXXXXXXXXXXXXXXXXXXXXXXXXXXXXXXXXXXXXXX",
"XXXXXXXXXXXXXXXXXXXXXXXXXXXXXXXXXXXXXXXXXXXXXXXXXXXXXXXXXXXXXXXX"
};
