/* XPM */
static char *result[] = {
/* columns rows colors chars-per-pixel */
"64 64 3 1 ",
"  c black",
". c #000300",
"X c #FA8E00",
/* pixels */
"................................................................",
"................................................................",
"..XXXXXXXXXXXXXXXXXXXXXXXXXXXX  XXXXXXXXXXXXXXXXXXXXXXXXXXXXXX..",
"..XXXXXXXXXXXXXXXXXXXXXXXXXXXX  XXXXXXXXXXXXXXXXXXXXXXXXXXXXXX..",
"..XXXXXXXXXXXXXXXXXXXXXXXXXXXX  XXXXXXXXXXXXXXXXXXXXXXXXXXXXXX..",
"..XXXXXXXXXXXXXXXXXXXXXXXXXXXX  XXXXXXXXXXXXXXXXXXXXXXXXXXXXXX..",
"..XXXXXXXXXXXXXXXXXXXXXXXXXXXX  XXXXXXXXXXXXXXXXXXXXXXXXXXXXXX..",
"..XXXXXXXXXXXXXXXXXXXXXXXXXXXX  XXXXXXXXXXXXXXXXXXXXXXXXXXXXXX..",
"..XXXXXXXXXXXXXXXXXXXXXXXXXXXX  XXXXXXXXXXXXXXXXXXXXXXXXXXXXXX..",
"..XXXXXXXXXXXXXXXXXXXXXXXXXXXX  XXXXXXXXXXXXXXXXXXXXXXXXXXXXXX..",
"..XXXXXXXXXXXXXXXXXXXXXXXXXXXX  XXXXXXXXXXXXXXXXXXXXXXXXXXXXXX..",
"..XXXXXXXXXXXXXXXXXXXXXXXXXXXX  XXXXXXXXXXXXXXXXXXXXXXXXXXXXXX..",
"................................................................",
"................ ...............................................",
"..XXXXXXXXXXXXX  XXXXXXXXXXXXXXXXXXXXXXXXXXXXX  XXXXXXXXXXXXXX..",
"..XXXXXXXXXXXXX  XXXXXXXXXXXXXXXXXXXXXXXXXXXXX  XXXXXXXXXXXXXX..",
"..XXXXXXXXXXXXX  XXXXXXXXXXXXXXXXXXXXXXXXXXXXX  XXXXXXXXXXXXXX..",
"..XXXXXXXXXXXXX  XXXXXXXXXXXXXXXXXXXXXXXXXXXXX  XXXXXXXXXXXXXX..",
"..XXXXXXXXXXXXX  XXXXXXXXXXXXXXXXXXXXXXXXXXXXX  XXXXXXXXXXXXXX..",
"..XXXXXXXXXXXXX  XXXXXXXXXXXXXXXXXXXXXXXXXXXXX  XXXXXXXXXXXXXX..",
"..XXXXXXXXXXXXX  XXXXXXXXXXXXXXXXXXXXXXXXXXXXX  XXXXXXXXXXXXXX..",
"..XXXXXXXXXXXXX  XXXXXXXXXXXXXXXXXXXXXXXXXXXXX  XXXXXXXXXXXXXX..",
"..XXXXXXXXXXXXX  XXXXXXXXXXXXXXXXXXXXXXXXXXXXX  XXXXXXXXXXXXXX..",
"..XXXXXXXXXXXXX  XXXXXXXXXXXXXXXXXXXXXXXXXXXXX  XXXXXXXXXXXXXX..",
"................................................................",
"................................................................",
"..XXXXXXXXXXXXXXXXXXXXXXXXXXXX  XXXXXXXXXXXXXXXXXXXXXXXXXXXXXX..",
"..XXXXXXXXXXXXXXXXXXXXXXXXXXXX  XXXXXXXXXXXXXXXXXXXXXXXXXXXXXX..",
"..XXXXXXXXXXXXXXXXXXXXXXXXXXXX  XXXXXXXXXXXXXXXXXXXXXXXXXXXXXX..",
"..XXXXXXXXXXXXXXXXXXXXXXXXXXXX  XXXXXXXXXXXXXXXXXXXXXXXXXXXXXX..",
"..XXXXXXXXXXXXXXXXXXXXXXXXXXXX  XXXXXXXXXXXXXXXXXXXXXXXXXXXXXX..",
"..XXXXXXXXXXXXXXXXXXXXXXXXXXXX  XXXXXXXXXXXXXXXXXXXXXXXXXXXXXX..",
"..XXXXXXXXXXXXXXXXXXXXXXXXXXXX  XXXXXXXXXXXXXXXXXXXXXXXXXXXXXX..",
"..XXXXXXXXXXXXXXXXXXXXXXXXXXXX  XXXXXXXXXXXXXXXXXXXXXXXXXXXXXX..",
"..XXXXXXXXXXXXXXXXXXXXXXXXXXXX  XXXXXXXXXXXXXXXXXXXXXXXXXXXXXX..",
"..XXXXXXXXXXXXXXXXXXXXXXXXXXXX  XXXXXXXXXXXXXXXXXXXXXXXXXXXXXX..",
"..XXXXXXXXXXXXXXXXXXXXXXXXXXXX  XXXXXXXXXXXXXXXXXXXXXXXXXXXXXX..",
"..XXXXXXXXXXXXXXXXXXXXXXXXXXXX  XXXXXXXXXXXXXXXXXXXXXXXXXXXXXX..",
"................................................................",
"................................................................",
"..XXXXXXXXXXXXX  XXXXXXXXXXXXXXXXXXXXXXXXXXXXX  XXXXXXXXXXXXXX..",
"..XXXXXXXXXXXXX  XXXXXXXXXXXXXXXXXXXXXXXXXXXXX  XXXXXXXXXXXXXX..",
"..XXXXXXXXXXXXX  XXXXXXXXXXXXXXXXXXXXXXXXXXXXX  XXXXXXXXXXXXXX..",
"..XXXXXXXXXXXXX  XXXXXXXXXXXXXXXXXXXXXXXXXXXXX  XXXXXXXXXXXXXX..",
"..XXXXXXXXXXXXX  XXXXXXXXXXXXXXXXXXXXXXXXXXXXX  XXXXXXXXXXXXXX..",
"..XXXXXXXXXXXXX  XXXXXXXXXXXXXXXXXXXXXXXXXXXXX  XXXXXXXXXXXXXX..",
"..XXXXXXXXXXXXX  XXXXXXXXXXXXXXXXXXXXXXXXXXXXX  XXXXXXXXXXXXXX..",
"..XXXXXXXXXXXXX  XXXXXXXXXXXXXXXXXXXXXXXXXXXXX  XXXXXXXXXXXXXX..",
"..XXXXXXXXXXXXX  XXXXXXXXXXXXXXXXXXXXXXXXXXXXX  XXXXXXXXXXXXXX..",
"..XXXXXXXXXXXXX  XXXXXXXXXXXXXXXXXXXXXXXXXXXXX  XXXXXXXXXXXXXX..",
"................................................................",
"................................................................",
"..XXXXXXXXXXXXXXXXXXXXXXXXXXXX  XXXXXXXXXXXXXXXXXXXXXXXXXXXXXX..",
"..XXXXXXXXXXXXXXXXXXXXXXXXXXXX  XXXXXXXXXXXXXXXXXXXXXXXXXXXXXX..",
"..XXXXXXXXXXXXXXXXXXXXXXXXXXXX  XXXXXXXXXXXXXXXXXXXXXXXXXXXXXX..",
"..XXXXXXXXXXXXXXXXXXXXXXXXXXXX  XXXXXXXXXXXXXXXXXXXXXXXXXXXXXX..",
"..XXXXXXXXXXXXXXXXXXXXXXXXXXXX  XXXXXXXXXXXXXXXXXXXXXXXXXXXXXX..",
"..XXXXXXXXXXXXXXXXXXXXXXXXXXXX  XXXXXXXXXXXXXXXXXXXXXXXXXXXXXX..",
"..XXXXXXXXXXXXXXXXXXXXXXXXXXXX  XXXXXXXXXXXXXXXXXXXXXXXXXXXXXX..",
"..XXXXXXXXXXXXXXXXXXXXXXXXXXXX  XXXXXXXXXXXXXXXXXXXXXXXXXXXXXX..",
"..XXXXXXXXXXXXXXXXXXXXXXXXXXXX  XXXXXXXXXXXXXXXXXXXXXXXXXXXXXX..",
"..XXXXXXXXXXXXXXXXXXXXXXXXXXXX  XXXXXXXXXXXXXXXXXXXXXXXXXXXXXX..",
"............................... ................................",
"................................................................"
};
