/* XPM */
static char *result[] = {
/* columns rows colors chars-per-pixel */
"64 64 30 1 ",
"  c #492319",
". c #4A3337",
"X c #612F22",
"o c #64154D",
"O c #613943",
"+ c #2E4861",
"@ c #594166",
"# c #4E6474",
"$ c #B71C1C",
"% c #D32F2F",
"& c #8E4631",
"* c #8E184B",
"= c #BA3155",
"- c #844344",
"; c #945A50",
": c #B75A40",
"> c #B5705C",
", c #8C5361",
"< c #8D6E63",
"1 c #C76245",
"2 c #448A28",
"3 c #639C2E",
"4 c #7EB837",
"5 c #A4C73A",
"6 c #C4D63E",
"7 c #B0866C",
"8 c #6A8A99",
"9 c #84ADA7",
"0 c #AFCFC2",
"q c None",
/* pixels */
"qqqqqqqqqqqqqqqqqqqqqqqqqqqqqqqqqqqqqqqqqqqqqqqqqqqqqqqqqqqqqqqq",
"qqqqqqqqqqqqqqqqqqqqqqqqqq========qqqqqqqqqqqqqqqqqqqqqqqqqqqqqq",
"qqqqqqqqqqqqqqqqqqqqqqqqqq========qqqqqqqqqqqqqqqqqqqqqqqqqqqqqq",
"qqqqqqqqqqqqqqqqqqqqqqqqqq========qqqqqqqqqqqqqqqqqqqqqqqqqqqqqq",
"qqqqqqqqqqqqqqqqqqqqqq================qqqqqqqqqqqqqqqqqqqqqqqqqq",
"qqqqqqqqqqqqqqqqqqqqqq================qqqqqqqqqqqqqqqqqqqqqqqqqq",
"qqqqqqqqqqqqqqqqqq========********========qqqqqqqqqqqqqqqqqqqqqq",
"qqqqqqqqqqqqqqqqqq========********========qqqqqqqqqqqqqqqqqqqqqq",
"qqqqqqqqqqqqqqqqqq========********========qqqqqqqqqqqqqqqqqqqqqq",
"qqqqqqqqqqqqq=========****************========qqqqqqqqqqqqqqqqqq",
"qqqqqqqqqqqqq=========****************========qqqqqqqqqqqqqqqqqq",
"qqqqqqqqqqqqq=========****************========qqqqqqqqqqqqqqqqqq",
"qqqqqqqqq=========************************=========qqqqqqqqqqqqq",
"qqqqqqqqq=========************************=========qqqqqqqqqqqqq",
"qqqqq========*********************************=========qqqqqqqqq",
"qqqqq========*********************************=========qqqqqqqqq",
"qqqqq========*********************************=========qqqqqqqqq",
"q========*********************************<<<<*****========qqqqq",
"q========*********************************<<<<*****========qqqqq",
"q========*********************************<<<<*****========qqqqq",
"q========*********************************<<<<*****========qqqqq",
"q========*********************************<<<<*****========qqqqq",
"q========*********************************<<<<*****========qqqqq",
"q====*************************************<<<<*********====qqqqq",
"q====*************************************<<<<*********====qqqqq",
"q====*********************oooooooo*********************====qqqqq",
"q====*********************oooooooo*********************====qqqqq",
"q====*********************oooooooo*********************====qqqqq",
"q*********************oooo        oooo*********************qqqqq",
"q*********************oooo        oooo*********************qqqqq",
"q*********************oooo        oooo*********************qqqqq",
"q*****************oooo    XXXXXXXX    oooo*****************qqqqq",
"q*****************oooo    XXXXXXXX    oooo*****************qqqqq",
"q************ooooo    XXXX&&&&&&&&XXXX    oooo*************qqqqq",
"q************ooooo    XXXX&&&&&&&&XXXX    oooo*************qqqqq",
"q************ooooo    XXXX&&&&&&&&XXXX    oooo*************qqqqq",
"q********oooo     XXXX&&&&&&&&&&&&&&&&XXXX    ooooo********qqqqq",
"q********oooo     XXXX&&&&&&&&&&&&&&&&XXXX    ooooo********qqqqq",
"q********oooo     XXXX&&&&&&&&&&&&&&&&XXXX    ooooo********qqqqq",
"q****oooo    XXXXX&&&&&&&&&&&&&&&&&&&&&&&&XXXX     oooo****qqqqq",
"q****oooo    XXXXX&&&&&&&&&&&&&&&&&&&&&&&&XXXX     oooo****qqqqq",
"qoooo    XXXX&&&&&&&&&&&&&&&&&&&&&&&&&&&&&&&&&XXXXX    ooooqqqqq",
"qoooo    XXXX&&&&&&&&&&&&&&&&&&&&&&&&&&&&&&&&&XXXXX    ooooqqqqq",
"qoooo    XXXX&&&&&&&&&&&&&&&&&&&&&&&&&&&&&&&&&XXXXX    ooooqqqqq",
"qqqqqXXXX&&&&.....OOOOOOOO&&&&&&&&&&&&&&&&&&&&&&&&&XXXXqqqqqqqqq",
"qqqqqXXXX&&&&.....OOOOOOOO&&&&&&&&&&&&&&&&&&&&&&&&&XXXXqqqqqqqqq",
"qqqqqXXXX&&&&.....OOOOOOOO&&&&&&&&&&&&&&&&&&&&&&&&&XXXXqqqqqqqqq",
"qqqqq&&&&&&&&OOOOO--------&&&&$$$$888899990000$$$$$&&&&qqqqqqqqq",
"qqqqq&&&&&&&&OOOOO--------&&&&$$$$888899990000$$$$$&&&&qqqqqqqqq",
"qqqqq&&&&&&&&OOOOO--------&&&&$$$$888899990000$$$$$&&&&qqqqqqqqq",
"qqqqq::::&&&&OOOOO----;;;;&&&&$$$$####88889999$$$$$&&&&qqqqqqqqq",
"qqqqq::::&&&&OOOOO----;;;;&&&&$$$$####88889999$$$$$&&&&qqqqqqqqq",
"qqqqq::::&&&&---------7777&&&&%%%%++++88888888%%%%%&&&&qqqqqqqqq",
"qqqqq::::&&&&---------7777&&&&%%%%++++88888888%%%%%&&&&qqqqqqqqq",
"qqqqq::::&&&&---------7777&&&&%%%%++++88888888%%%%%&&&&qqqqqqqqq",
"qqqqq1111::::OOOOO--------1111&&&&&&&&&&&&&&&&&&&&&66665555qqqqq",
"qqqqq1111::::OOOOO--------1111&&&&&&&&&&&&&&&&&&&&&66665555qqqqq",
"qqqqq1111::::OOOOO--------1111&&&&&&&&&&&&&&&&&&&&&66665555qqqqq",
"qqqqq,,,,@@@@.....OOOO----@@@@,,,,,,,,,,,,,,,,66666555555554444q",
"qqqqq,,,,@@@@.....OOOO----@@@@,,,,,,,,,,,,,,,,66666555555554444q",
"qqqqq,,,,>>>>>>>>>>>>>>>>>>>>>,,,,,,,,,,,,444444444333333332222q",
"qqqqq,,,,>>>>>>>>>>>>>>>>>>>>>,,,,,,,,,,,,444444444333333332222q",
"qqqqq,,,,>>>>>>>>>>>>>>>>>>>>>,,,,,,,,,,,,444444444333333332222q",
"qqqqqqqqqqqqqqqqqqqqqqqqqqqqqqqqqqqqqqqqqqqqqqqqqqqqqqqqqqqqqqqq"
};
