/* XPM */
static char *result[] = {
/* columns rows colors chars-per-pixel */
"64 64 8 1 ",
"  c #CC9E12",
". c #E0AD14",
"X c #D9AB2B",
"o c #F5BA25",
"O c #F0BB28",
"+ c #FFCE3C",
"@ c #F0C95D",
"# c None",
/* pixels */
"################################################################",
"################################################################",
"################################################################",
"################################################################",
"################################################################",
"################################################################",
"################################################################",
"################################################################",
"################################################################",
"################################################################",
"################################################################",
"################################################################",
"#############################      #############################",
"##########################   ......  ###########################",
"##########################   ......  ###########################",
"######################### ........... ##########################",
"######################## ....      ...  ########################",
"######################## ....      ...  ########################",
"####################### ...  @@@@@@  ...########################",
"###################### ... @@@@@@@@@@...  ######################",
"###################### ... @@@@@@@@@@...  ######################",
"###################### .. @@X@@@@@@@@  .  ######################",
"##################### ...@@XoX@X@@XXX@ ...######################",
"##################### ...@@XoX@X@@XXX@ ...######################",
"#################### ... @XoooXoXXooo@@ .. #####################",
"#################### .. @XoXXooooooXXX@@.. #####################",
"#################### .. @ooX+XXXXoXXXoX@.. #####################",
"#################### .. @ooX+XXXXoXXXoX@.. #####################",
"####################.. @@XooX+OOOX+ooX@@  . ####################",
"####################.. @@@XooXOXOOXoo@@@  . ####################",
"####################.. @@@XooXOXOOXoo@@@  . ####################",
"####################.. @@@XoXOX+XOOoo@@@  . ####################",
"####################.. @@XooXO+X+XOooX@@  . ####################",
"####################.. @@XooXO+X+XOooX@@  . ####################",
"####################.. @@@XoXOX+XOOoo@@@  . ####################",
"####################.. @@@XooXOXOOXoo@@@  . ####################",
"####################.. @@@XooXOXOOXoo@@@  . ####################",
"####################.. @@XooX+OOOX+ooX@@  . ####################",
"#################### .. @ooX+XXXXoXXXoX@.. #####################",
"#################### .. @ooX+XXXXoXXXoX@.. #####################",
"#################### .. @XoXXooooooXXX@@.. #####################",
"#################### ... @XoooXoXXooo@@ .. #####################",
"##################### ...@@XoX@X@@XXX@ ...######################",
"##################### ...@@XoX@X@@XXX@ ...######################",
"###################### .. @@X@@@@@@@@  .  ######################",
"###################### ... @@@@@@@@@@...  ######################",
"###################### ... @@@@@@@@@@...  ######################",
"####################### ...  @@@@@@  ...########################",
"######################## ....      ...  ########################",
"######################## ....      ...  ########################",
"######################### ........... ##########################",
"##########################   ......  ###########################",
"##########################   ......  ###########################",
"#############################      #############################",
"################################################################",
"################################################################",
"################################################################",
"################################################################",
"################################################################",
"################################################################",
"################################################################",
"################################################################",
"################################################################",
"################################################################"
};
