/* XPM */
static char *result[] = {
/* columns rows colors chars-per-pixel */
"64 64 8 1 ",
"  c #CC9E12",
". c #E0AD14",
"X c #D9AB2B",
"o c #F5BA25",
"O c #F0BB28",
"+ c #FFCE3C",
"@ c #F0C95D",
"# c None",
/* pixels */
"################################################################",
"################################################################",
"################################################################",
"################################################################",
"################################################################",
"################################################################",
"################################################################",
"################################################################",
"################################################################",
"################################################################",
"################################################################",
"################################################################",
"###########################           ##########################",
"#######################    ...........    ######################",
"#######################    ...........    ######################",
"#####################  ...................  ####################",
"##################   ......           ......   #################",
"##################   ......           ......   #################",
"################# ......   @@@@@@@@@@@   ...... ################",
"###############  ...... @@@@@@@@@@@@@@@@@ ......  ##############",
"###############  ...... @@@@@@@@@@@@@@@@@ ......  ##############",
"###############  ...   @@@X@@@@@@@@@@@X@@@   ...  ##############",
"############## ..... @@@XXoXX@@@X@@@XXoXX@@@ ..... #############",
"############## ..... @@@XXoXX@@@X@@@XXoXX@@@ ..... #############",
"############  ....  @@@XoooooXXXoXXXoooooX@@@  ....  ###########",
"############  ... @@@XXoXXXoooooooooooXXXoXX@@@ ...  ###########",
"############  ... @@XoooXX+XXoXXXXXoXX+XXoooX@@ ...  ###########",
"############  ... @@XoooXX+XXoXXXXXoXX+XXoooX@@ ...  ###########",
"########### ...  @@@@XXoooX++XOOOOOX++XoooXX@@@@  ... ##########",
"########### ...  @@@@@@XoooXXOOOXOOOXXoooX@@@@@@  ... ##########",
"########### ...  @@@@@@XoooXXOOOXOOOXXoooX@@@@@@  ... ##########",
"########### ...  @@@@@@XooXOOOXX+XXOOOXooX@@@@@@  ... ##########",
"########### ...  @@@@XXoooXOOX++X++XOOXoooXX@@@@  ... ##########",
"########### ...  @@@@XXoooXOOX++X++XOOXoooXX@@@@  ... ##########",
"########### ...  @@@@@@XooXOOOXX+XXOOOXooX@@@@@@  ... ##########",
"########### ...  @@@@@@XoooXXOOOXOOOXXoooX@@@@@@  ... ##########",
"########### ...  @@@@@@XoooXXOOOXOOOXXoooX@@@@@@  ... ##########",
"########### ...  @@@@XXoooX++XOOOOOX++XoooXX@@@@  ... ##########",
"############  ... @@XoooXX+XXoXXXXXoXX+XXoooX@@ ...  ###########",
"############  ... @@XoooXX+XXoXXXXXoXX+XXoooX@@ ...  ###########",
"############  ... @@@XXoXXXoooooooooooXXXoXX@@@ ...  ###########",
"############  ....  @@@XoooooXXXoXXXoooooX@@@  ....  ###########",
"############## ..... @@@XXoXX@@@X@@@XXoXX@@@ ..... #############",
"############## ..... @@@XXoXX@@@X@@@XXoXX@@@ ..... #############",
"###############  ...   @@@X@@@@@@@@@@@X@@@   ...  ##############",
"###############  ...... @@@@@@@@@@@@@@@@@ ......  ##############",
"###############  ...... @@@@@@@@@@@@@@@@@ ......  ##############",
"################# ......   @@@@@@@@@@@   ...... ################",
"##################   ......           ......   #################",
"##################   ......           ......   #################",
"#####################  ...................  ####################",
"#######################    ...........    ######################",
"#######################    ...........    ######################",
"###########################           ##########################",
"################################################################",
"################################################################",
"################################################################",
"################################################################",
"################################################################",
"################################################################",
"################################################################",
"################################################################",
"################################################################",
"################################################################"
};
