/* XPM */
static char *result[] = {
/* columns rows colors chars-per-pixel */
"64 64 8 1 ",
"  c #CC9E12",
". c #E0AD14",
"X c #D9AB2B",
"o c #F5BA25",
"O c #F0BB28",
"+ c #FFCE3C",
"@ c #F0C95D",
"# c None",
/* pixels */
"################################################################",
"################################################################",
"################################################################",
"################################################################",
"################################################################",
"################################################################",
"################################################################",
"################################################################",
"################################################################",
"################################################################",
"################################################################",
"################################################################",
"############################        ############################",
"########################    ........    ########################",
"########################    ........    ########################",
"####################### ................ #######################",
"####################   .....        .....   ####################",
"####################   .....        .....   ####################",
"####################.....   @@@@@@@@   .....####################",
"##################  .... @@@@@@@@@@@@@@ ....  ##################",
"##################  .... @@@@@@@@@@@@@@ ....  ##################",
"##################  ..  @@@X@@@@@@@@X@@@  ..  ##################",
"################# .... @@XXoX@@@@@@XoXX@@ .... #################",
"################# .... @@XXoX@@@@@@XoXX@@ .... #################",
"################ ...  @@XooooXXXXXXooooX@@  ... ################",
"################ ...@@@XoXXXooooooooXXXoX@@@... ################",
"################ ...@@XooXX+XoXXXXoX+XXooX@@... ################",
"################ ...@@XooXX+XoXXXXoX+XXooX@@... ################",
"############### ..  @@@XoooX+XOOOOX+XoooX@@@  .. ###############",
"############### ..  @@@@XoooXOOOOOOXoooX@@@@  .. ###############",
"############### ..  @@@@XoooXOOOOOOXoooX@@@@  .. ###############",
"############### ..  @@@@XooXOOXXXXOOXooX@@@@  .. ###############",
"############### ..  @@@XoooXOX++++XOXoooX@@@  .. ###############",
"############### ..  @@@XoooXOX++++XOXoooX@@@  .. ###############",
"############### ..  @@@@XooXOOXXXXOOXooX@@@@  .. ###############",
"############### ..  @@@@XoooXOOOOOOXoooX@@@@  .. ###############",
"############### ..  @@@@XoooXOOOOOOXoooX@@@@  .. ###############",
"############### ..  @@@XoooX+XOOOOX+XoooX@@@  .. ###############",
"################ ...@@XooXX+XoXXXXoX+XXooX@@... ################",
"################ ...@@XooXX+XoXXXXoX+XXooX@@... ################",
"################ ...@@@XoXXXooooooooXXXoX@@@... ################",
"################ ...  @@XooooXXXXXXooooX@@  ... ################",
"################# .... @@XXoX@@@@@@XoXX@@ .... #################",
"################# .... @@XXoX@@@@@@XoXX@@ .... #################",
"##################  ..  @@@X@@@@@@@@X@@@  ..  ##################",
"##################  .... @@@@@@@@@@@@@@ ....  ##################",
"##################  .... @@@@@@@@@@@@@@ ....  ##################",
"####################.....   @@@@@@@@   .....####################",
"####################   .....        .....   ####################",
"####################   .....        .....   ####################",
"####################### ................ #######################",
"########################    ........    ########################",
"########################    ........    ########################",
"############################        ############################",
"################################################################",
"################################################################",
"################################################################",
"################################################################",
"################################################################",
"################################################################",
"################################################################",
"################################################################",
"################################################################",
"################################################################"
};
