/* XPM */
static char *result[] = {
/* columns rows colors chars-per-pixel */
"64 64 6 1 ",
"  c #000300",
". c #FF5722",
"X c #F44336",
"o c #FFEB3B",
"O c #E6EE9C",
"+ c None",
/* pixels */
"++++++++++++++++++++++++++++++++++++++++++++++++++++++++++++++++",
"++++++++++++++++++++++++++++++++++++++++++++++++++++++++++++++++",
"++++++++++++++++++++++++++++++++++++++++++++++++++++++++++++++++",
"++++++++++++++++++++++++++++++++++++++++++++++++++++++++++++++++",
"+++++++++++++++++++++++++++++++++++++++++XX+++++++++++++++++++++",
"+++++++++++++++++++++++++++++++++++++++++XX+++++++++++++++++++++",
"+++++++++++++++++++++++++++++++++++++++XXXXXX+++++++++++++++++++",
"+++++++++++++++++++++++++++++++++++++++XX...X+++++++++++++++++++",
"++++++++++++++++++++++++++++++++++++++++X..X++++++++++++++++++++",
"++++++++++++++++++++++++++++++++++++++XXX..X++++++++++++++++++++",
"++++++++++++++++++++++++++++++++++++++XX...X++++++++++++++++++++",
"++++++++++++++++++++++++++++++++++++++XX...X++++++++++++++++++++",
"+++++++++++++XXX+++++++++++++++++++XXXX....X++++++++++++++++++++",
"++++++++++++XX..XX+++++XXXX++++++++XX......X++++++++++++++++++++",
"++++++++++++X....XX++++X.XXXX++++++XX......X++++++++++++++++++++",
"++++++++++++X.....X++++XX.XXXXXXX++XX....XXX++++++++++++++++++++",
"++++++++++++XX....X+++++XX.....XX++XX...XX++++++++++++++++++++++",
"+++++++++++++XX...X++++++XXX...XX++XX...XX++++++++++++++++++++++",
"++++++++++++++X...X++++++++XX..XX++XX...XX++++++++++++++++++++++",
"++++++++++++++XX...X+++++++XX..XX++XX....XX+++++++++++++++++++++",
"+++++++++++++++X...XX++++++XX..XX++XX....XX+++++++++++++++++++++",
"+++++++++++++++XX..XX++++++XX..XX++XX....XX+++XXXXXX+XXX++++++++",
"+++++++++++++++XX....XX++XX....XX++++XX..XX++XX..XXXXXXX++++++++",
"+++++++++++++++XX....XX++XX....XX++++XX..XX++XX.......XX++++++++",
"+++++++++++++++++XX....XX....XX++++++XX..XX++XX........X++++++++",
"+++++++++++++++++XX....XX....XX++++++XX..XX++XX...XX.XXX++++++++",
"+++++++++++++++++++XX........XX++++++XX..XX++XX...XXXX++++++++++",
"+++++++++++++++++++XX........XX++++++XX..XX++XX..XXXXX++++++++++",
"+++++++++++++++++++XX........XX++++++XX..XX++XX..XX+++++++++++++",
"+++++++++++++++++++XX..........XX++++XX..XXXX....XX+++++++++++++",
"+++++++++++++++++++XX..........XX++++XX..XXXX....XX+++++++++++++",
"+++++++++++++++++++XX..........XXXXXX............XX+++++++++++++",
"+++++++++++++++++++XX..........XXXXXX............XX+++++++++++++",
"+++++++++++++++++XX......oo............o.......XX+++++++++++++++",
"+++++++++++++++++XX......oo...........oo...oo..XX+++++++++++++++",
"+++++++++++++++++XX......oo.....oo.oooo.....o..XX+++++++++++++++",
"+++++++++++++++XX........oooo..ooo.oooooooooo..XX+++++++++++++++",
"+++++++++++++++XX........oooo..oo..oooooooooo..XX+++++++++++++++",
"+++++++++++++XXXX......oooooooooooooooooooo......XX+++++++++++++",
"+++++++++++++XX........oooooooooooooooooooo......XX+++++++++++++",
"++++++++++++++XX.......oo    ooooooo    ooo......XXXX+++++++++++",
"++++++++++++++XX.X.....oo    ooooooo    ooo.......XXXX++++++++++",
"+++++++++++++XX........ooooooooOOOOOOOOoo...........XX++++++++++",
"+++++++++++++XXX.......ooooooooOOOOOOOOoo........XXXX+++++++++++",
"++++++++++++++XXX......ooooooOOOOOOOOOOoo.......XXXX++++++++++++",
"+++++++++++++++XX......oooooo       OOOoooo.....XXX+++++++++++++",
"+++++++++++++++XX......ooooooOOOOOOOOOOoooo.....XXX+++++++++++++",
"+++++++++++++++++XX......oooooooooooooooooo....XX+++++++++++++++",
"+++++++++++++++++XX......oooooooooooooooooo....XX+++++++++++++++",
"+++++++++++++++++++XX........................XX+++++++++++++++++",
"+++++++++++++++++++XX........................XX+++++++++++++++++",
"+++++++++++++++++++XX........................XX+++++++++++++++++",
"+++++++++++++++++++++XXXXXXXXXXXXXXXXXXXXXXXX+++++++++++++++++++",
"+++++++++++++++++++++XXXXXXXXXXXXXXXXXXXXXXXX+++++++++++++++++++",
"++++++++++++++++++++++++++++++++++++++++++++++++++++++++++++++++",
"++++++++++++++++++++++++++++++++++++++++++++++++++++++++++++++++",
"++++++++++++++++++++++++++++++++++++++++++++++++++++++++++++++++",
"++++++++++++++++++++++++++++++++++++++++++++++++++++++++++++++++",
"++++++++++++++++++++++++++++++++++++++++++++++++++++++++++++++++",
"++++++++++++++++++++++++++++++++++++++++++++++++++++++++++++++++",
"++++++++++++++++++++++++++++++++++++++++++++++++++++++++++++++++",
"++++++++++++++++++++++++++++++++++++++++++++++++++++++++++++++++",
"++++++++++++++++++++++++++++++++++++++++++++++++++++++++++++++++",
"++++++++++++++++++++++++++++++++++++++++++++++++++++++++++++++++"
};
