/* XPM */
static char *result[] = {
/* columns rows colors chars-per-pixel */
"64 64 6 1 ",
"  c #000300",
". c #FF5722",
"X c #F44336",
"o c #FFEB3B",
"O c #E6EE9C",
"+ c None",
/* pixels */
"++++++++++++++++++++++++++++++++++++++++++++++++++++++++++++++++",
"++++++++++++++++++++++++++++++++++++++++++++++++++++++++++++++++",
"++++++++++++++++++++++++++++++++++++++++++++++++++++++++++++++++",
"++++++++++++++++++++++++++++++++++++++++++++++++++++++++++++++++",
"++++++++++++++++++++++++++++++++++++++++++++++++++++++++++++++++",
"++++++++++++++++++++++++++++++++++++++++++++++++++++++++++++++++",
"++++++++++++++++++++++++++++++++++++++++++++++++++++++++++++++++",
"++++++++++++++++++++++++++++++++++++++++++++++++++++++++++++++++",
"+++++++++++++++++++++++++++XX+++++++++++++++++++++++++++++++++++",
"+++++++++++++++++++++++++++XX+++++++++++++++++++++++++++++++++++",
"+++++++++++++++++++++++++XX..XX+++++++++++++++++++++++++++++++++",
"+++++++++++++++++++++++++XX..XX+++++++++++++++++++++++++++++++++",
"+++++++++++++++++++++++++XX..XX+++++++++++++++++++++++++++++++++",
"+++++++++++++++++++XX++++XX....XX++++XX+++++++++++++++++++++++++",
"+++++++++++++++++++XX++++XX....XX++++XX+++++++++++++++++++++++++",
"+++++++++++++++++XX..XX++++XX..XX++XX..XX+++++++++++++++++++++++",
"+++++++++++++++++XX..XX++++XX..XX++XX..XX+++++++++++++++++++++++",
"+++++++++++++++XX....XX++++XX..XX++XX..XX+++++++++++++++++++++++",
"+++++++++++++++XX....XX++++XX..XX++XX..XX+++++++++++++++++++++++",
"+++++++++++++++XX..XX++++++XX..XX++XX....XX++++XXXXXX+++++++++++",
"+++++++++++++++XX..XX++++++XX..XX++XX....XX++++XXXXXX+++++++++++",
"+++++++++++++++XX..XX++++++XX..XX++XX....XX++++XXXXXX+++++++++++",
"+++++++++++++++XX....XX++XX....XX++++XX..XX++XX....XX+++++++++++",
"+++++++++++++++XX....XX++XX....XX++++XX..XX++XX....XX+++++++++++",
"+++++++++++++++++XX....XX....XX++++++XX..XX++XX..XX+++++++++++++",
"+++++++++++++++++XX....XX....XX++++++XX..XX++XX..XX+++++++++++++",
"+++++++++++++++++++XX........XX++++++XX..XX++XX..XX+++++++++++++",
"+++++++++++++++++++XX........XX++++++XX..XX++XX..XX+++++++++++++",
"+++++++++++++++++++XX........XX++++++XX..XX++XX..XX+++++++++++++",
"+++++++++++++++++++XX..........XX++++XX..XXXX....XX+++++++++++++",
"+++++++++++++++++++XX..........XX++++XX..XXXX....XX+++++++++++++",
"+++++++++++++++++++XX....oo....XXXXXX............XX+++++++++++++",
"+++++++++++++++++++XX....oo....XXXXXX............XX+++++++++++++",
"+++++++++++++++++XX......oo................oo..XX+++++++++++++++",
"+++++++++++++++++XX......oo................oo..XX+++++++++++++++",
"+++++++++++++++++XX......oo................oo..XX+++++++++++++++",
"+++++++++++++++XX........oooo..oo..oo..oooooo..XX+++++++++++++++",
"+++++++++++++++XX........oooo..oo..oo..oooooo..XX+++++++++++++++",
"+++++++++++++++XX......oooooooooooooooooooo......XX+++++++++++++",
"+++++++++++++++XX......oooooooooooooooooooo......XX+++++++++++++",
"+++++++++++++++XX......oo   ooooooooo   ooo......XX+++++++++++++",
"+++++++++++++++XX......ooo   ooooooo   oooo......XX+++++++++++++",
"+++++++++++++++XX......ooooooooOOOOOOOOoo........XX+++++++++++++",
"+++++++++++++++XX......ooooooooOOOOOOOOoo........XX+++++++++++++",
"+++++++++++++++XX......oooooo  OOO  OOOoo........XX+++++++++++++",
"+++++++++++++++XX......ooooooO     OOOOoooo......XX+++++++++++++",
"+++++++++++++++XX......ooooooOOOOOOOOOOoooo......XX+++++++++++++",
"+++++++++++++++++XX......oooooooooooooooooo....XX+++++++++++++++",
"+++++++++++++++++XX......oooooooooooooooooo....XX+++++++++++++++",
"+++++++++++++++++++XX........................XX+++++++++++++++++",
"+++++++++++++++++++XX........................XX+++++++++++++++++",
"+++++++++++++++++++XX........................XX+++++++++++++++++",
"+++++++++++++++++++++XXXXXXXXXXXXXXXXXXXXXXXX+++++++++++++++++++",
"+++++++++++++++++++++XXXXXXXXXXXXXXXXXXXXXXXX+++++++++++++++++++",
"++++++++++++++++++++++++++++++++++++++++++++++++++++++++++++++++",
"++++++++++++++++++++++++++++++++++++++++++++++++++++++++++++++++",
"++++++++++++++++++++++++++++++++++++++++++++++++++++++++++++++++",
"++++++++++++++++++++++++++++++++++++++++++++++++++++++++++++++++",
"++++++++++++++++++++++++++++++++++++++++++++++++++++++++++++++++",
"++++++++++++++++++++++++++++++++++++++++++++++++++++++++++++++++",
"++++++++++++++++++++++++++++++++++++++++++++++++++++++++++++++++",
"++++++++++++++++++++++++++++++++++++++++++++++++++++++++++++++++",
"++++++++++++++++++++++++++++++++++++++++++++++++++++++++++++++++",
"++++++++++++++++++++++++++++++++++++++++++++++++++++++++++++++++"
};
