/* XPM */
static char *result[] = {
/* columns rows colors chars-per-pixel */
"64 64 6 1 ",
"  c #000300",
". c #FF5722",
"X c #F44336",
"o c #FFEB3B",
"O c #E6EE9C",
"+ c None",
/* pixels */
"++++++++++++++++++++++++++++++++++++++++++++++++++++++++++++++++",
"++++++++++++++++++++++++++++++++++++++++++++++++++++++++++++++++",
"++++++++++++++++++++++++++++++++++++++++++++++++++++++++++++++++",
"++++++++++++++++++++++++++++++++++++++++++++++++++++++++++++++++",
"++++++++++++++++++++++++++++++++++++++++++++++++++++++++++++++++",
"++++++++++++++++++++++++++++++++++++++++++++++++++++++++++++++++",
"+++++++++++++++++++++++++++XXX++++++++++++++XXXX++++++++++++++++",
"++++++++++++++++++++++++++XX.X+++++++++++XXX...XX+++++++++++++++",
"+++++++++++++++++++++++++XX..X++++++++++XX.....X++++++++++++++++",
"+++++++++++++++++++++++++X...X+++++++++XX.....XX++++++++++++++++",
"+++++++++++++++++++++++++X....X+++++++XX......X+++++++++++++++++",
"+++++++++++++++++++++++++X....X++++++XX......XX+++++++++++++++++",
"+++++++++++++++++++++++++X....X++++++X.......X++++++++++++++++++",
"+++++++++++++++++++++++++XX...X+++++XX.......XX+++++++++++++++++",
"++++++++++++++++++++++++++X...X++++++XX.......X+++++++++++++++++",
"+++++++++XX+++++++++++++++XX..X+++++++XX.....XX+++++++++++++++++",
"+++++++++XXXXXX++++++++++++X...X+++++++X.....X++++++++++++++++++",
"++++++++XXXX..XXX+++++++++XX..XX+++++++X.....X++++++++++++++++++",
"++++++++XX......XXX+++++++X...X++++++++X.....X++++++++++++++++++",
"+++++++XX.........XX++++++X...X++++++++X....XX++++++++XXXXXX++++",
"+++++++X...........XX+++++X..XX++++++++X...XX++++++++XX....XX+++",
"++++++XX...........XX+++++X..XX++++++XXX..XX+++++++XX......X++++",
"++++++XX.XX..........XX++X...X++++++X.....XX++++++XX.......X++++",
"+++++++XXX+XX........XX+XX...X+++++XX......X++++++X.......X+++++",
"++++++++++++XXX........XX....X+++XXX.......X++++++X.......XX++++",
"++++++++++++++XX........X....XXXXX.......XXX++++++X........XX+++",
"+++++++++++++++X.............XX..........XX+++++XX..........X+++",
"+++++++++++++++X.........................XX+++++X...........X+++",
"++++++++++++++++X........................XX++++XX...........X+++",
"++++++++++++++++XX..............oo.......XXX++XX..........XX++++",
"+++++++++++++++++X.X............oo.......XXXXXX..........XX+++++",
"+++++++++++++++++XXX...oo.......oo...oo..........XX...XXX+++++++",
"++++++++++++++++++XX..ooo.......oo..ooo..........XXXXXX+++++++++",
"+++++++++++++++++XX....ooo.....ooo..ooo........XX+++++++++++++++",
"+++++++++++++++++XX.....oo...oooo...ooooo......XX+++++++++++++++",
"+++++++++++++++++XX.....oo.ooooooo..ooooo......XX+++++++++++++++",
"+++++++++++++++XX......oooooooooooooooooooooo..XX+++++++++++++++",
"+++++++++++++++XX......oooooooooooooooooooooo..XX+++++++++++++++",
"+++++++++++++XXXX.....ooooooooooooooooooooo......XX+++++++++++++",
"+++++++++++++XX........oooooooooooooooooooo......XX+++++++++++++",
"++++++++++++++XX.......oo   ooooooooo   ooo......XXXX+++++++++++",
"++++++++++++++XX.......oooo  ooooooo  ooooo.......XXXX++++++++++",
"+++++++++++++XX........ooooooooOOOOOOOOoo...........XX++++++++++",
"+++++++++++++XXX.......oooooOOOOOOOOOOOoo........XXXX+++++++++++",
"++++++++++++++XXX......oooooOOOOOOOOOOOoo.......XXXX++++++++++++",
"+++++++++++++++XX......oooooo      OOOOoooo.....XXX+++++++++++++",
"+++++++++++++++XX......ooooo  OOOO  OOOoooo.....XXX+++++++++++++",
"+++++++++++++++++XX......oooooooooooooooooo....XX+++++++++++++++",
"+++++++++++++++++XX......oooooooooooooooooo....XX+++++++++++++++",
"+++++++++++++++++++XX........................XX+++++++++++++++++",
"+++++++++++++++++++XX........................XX+++++++++++++++++",
"+++++++++++++++++++XX........................XX+++++++++++++++++",
"+++++++++++++++++++++XXXXXXXXXXXXXXXXXXXXXXXX+++++++++++++++++++",
"+++++++++++++++++++++XXXXXXXXXXXXXXXXXXXXXXXX+++++++++++++++++++",
"++++++++++++++++++++++++++++++++++++++++++++++++++++++++++++++++",
"++++++++++++++++++++++++++++++++++++++++++++++++++++++++++++++++",
"++++++++++++++++++++++++++++++++++++++++++++++++++++++++++++++++",
"++++++++++++++++++++++++++++++++++++++++++++++++++++++++++++++++",
"++++++++++++++++++++++++++++++++++++++++++++++++++++++++++++++++",
"++++++++++++++++++++++++++++++++++++++++++++++++++++++++++++++++",
"++++++++++++++++++++++++++++++++++++++++++++++++++++++++++++++++",
"++++++++++++++++++++++++++++++++++++++++++++++++++++++++++++++++",
"++++++++++++++++++++++++++++++++++++++++++++++++++++++++++++++++",
"++++++++++++++++++++++++++++++++++++++++++++++++++++++++++++++++"
};
