/* XPM */
static char *result[] = {
/* columns rows colors chars-per-pixel */
"16 16 66 1 ",
"  c #286B42",
". c #286C42",
"X c #296D43",
"o c #2A6D43",
"O c #2B6E44",
"+ c #2C7045",
"@ c #2C7046",
"# c #2D7146",
"$ c #2F7448",
"% c #31774A",
"& c #32784B",
"* c #33794C",
"= c #3D8355",
"- c #3C8454",
"; c #3D8656",
": c #3E8756",
"> c #3F8657",
", c #3F8857",
"< c #408858",
"1 c #428C5A",
"2 c #438C5B",
"3 c #438D5B",
"4 c #438B5C",
"5 c #448B5D",
"6 c #458D5D",
"7 c #458E5D",
"8 c #458D5E",
"9 c #46905E",
"0 c #47905F",
"q c #489060",
"w c #489160",
"e c #499061",
"r c #499261",
"t c #499361",
"y c #499262",
"u c #4A9262",
"i c #4B9463",
"p c #4C9663",
"a c #4C9664",
"s c #4D9765",
"d c #4E9865",
"f c #4E9866",
"g c #4F9C66",
"h c #509A67",
"j c #529F69",
"k c #539F6A",
"l c #53A06A",
"z c #54A16B",
"x c #59A670",
"c c #5AA671",
"v c #5AA771",
"b c #5BA673",
"n c #5CA673",
"m c #5CA774",
"M c #5BA872",
"N c #5DAA74",
"B c #5EAB75",
"V c #5EA976",
"C c #5FAB77",
"Z c #5FAC76",
"A c #60AB77",
"S c #60AC78",
"D c #61AE78",
"F c #62AE79",
"G c #62AF79",
"H c #69B680",
/* pixels */
"zlggggzlggzggglg",
"OVggzlHwzln@gN89",
"ggDM*V01tHggggHw",
"ggn@gggg,agggg>1",
"kzggggkzggkgggzg",
"#bggkzHikzCogve2",
"ggZB&bs:wHggggHi",
"ggAogggg37ggggq:",
"zjggggzjggzgggjg",
"XSggzjHrzjm+gB59",
"ggGc%S63aHggggHr",
"ggm+gggg;dgggg=3",
"jlggggjlggjggglg",
"OVggjlHhjlF.gxu<",
"ggNZ$Vf-pHggggHh",
"ggF gggg14ggggy-"
};
