/* XPM */
static char *result[] = {
/* columns rows colors chars-per-pixel */
"16 16 3 1 ",
"  c black",
". c #FFD900",
"X c None",
/* pixels */
"XXXXXXXXXXXXXXXX",
"XXXXX      XXXXX",
"XXXX  ....  XXXX",
"XXX  ......  XXX",
"XX  ........  XX",
"X  ...    ...  X",
"X .... ....... X",
"X ...    ..... X",
"X .... ....... X",
"X ...    ..... X",
"X  ... ......  X",
"XX  ..    ..  XX",
"XXX  ......  XXX",
"XXXX  ....  XXXX",
"XXXXX      XXXXX",
"XXXXXXXXXXXXXXXX"
};
